<svg width="76" height="67" viewBox="0 0 76 67" fill="#000" xmlns="http://www.w3.org/2000/svg">
<path d="M76 13.0497C76 10.9227 74.2696 9.19222 72.1425 9.19222H39.2311V7.51235C40.756 6.99725 41.8575 5.55407 41.8575 3.85745C41.8575 1.73044 40.127 0 38 0C35.873 0 34.1425 1.73044 34.1425 3.85745C34.1425 5.55407 35.244 6.99725 36.7689 7.51235V9.19222H3.85745C1.73044 9.19222 0 10.9227 0 13.0497C0 14.7463 1.10143 16.1895 2.62635 16.7046V62.9503C2.62635 65.0773 4.35679 66.8078 6.4838 66.8078H69.5162C71.6432 66.8078 73.3737 65.0773 73.3737 62.9503V16.7046C74.8986 16.1895 76 14.7463 76 13.0497V13.0497ZM38 2.4622C38.7694 2.4622 39.3952 3.0881 39.3952 3.85745C39.3952 4.62681 38.7694 5.2527 38 5.2527C37.2306 5.2527 36.6048 4.62681 36.6048 3.85745C36.6048 3.0881 37.2306 2.4622 38 2.4622ZM69.5162 64.3456H6.4838C5.71445 64.3456 5.08855 63.7197 5.08855 62.9503V16.9071H70.9114V62.9503C70.9114 63.7197 70.2856 64.3456 69.5162 64.3456ZM72.1425 14.4449H3.85745C3.0881 14.4449 2.4622 13.819 2.4622 13.0497C2.4622 12.2803 3.0881 11.6544 3.85745 11.6544H72.1425C72.9119 11.6544 73.5378 12.2803 73.5378 13.0497C73.5378 13.819 72.9119 14.4449 72.1425 14.4449Z"></path>
<path d="M28.365 52.0022L52.5269 27.8403V31.4341C52.5269 32.114 53.0781 32.6652 53.758 32.6652C54.4379 32.6652 54.9891 32.114 54.9891 31.4341V24.8682C54.9891 24.1884 54.4379 23.6371 53.758 23.6371H47.1922C46.5123 23.6371 45.9611 24.1884 45.9611 24.8682C45.9611 25.5481 46.5123 26.0993 47.1922 26.0993H50.786L26.6241 50.2613C26.61 50.2752 26.5978 50.2905 26.5845 50.3049C26.0673 50.0467 25.4846 49.9006 24.8682 49.9006C22.7412 49.9006 21.0107 51.6311 21.0107 53.7581C21.0107 55.8851 22.7412 57.6155 24.8682 57.6155C26.9952 57.6155 28.7256 55.8851 28.7256 53.7581C28.7256 53.1417 28.5796 52.559 28.3214 52.0418C28.336 52.0285 28.3511 52.0163 28.365 52.0022ZM24.8682 55.1533C24.0988 55.1533 23.4729 54.5275 23.4729 53.7581C23.4729 52.9887 24.0988 52.3628 24.8682 52.3628C25.6375 52.3628 26.2634 52.9887 26.2634 53.7581C26.2634 54.5275 25.6375 55.1533 24.8682 55.1533Z"></path>
<path d="M21.3715 30.9914C21.6118 31.2317 21.9269 31.352 22.2419 31.352C22.5569 31.352 22.8721 31.2319 23.1124 30.9914L24.8683 29.2355L26.6242 30.9914C26.8645 31.2317 27.1796 31.352 27.4946 31.352C27.8096 31.352 28.1248 31.2319 28.3651 30.9914C28.8459 30.5106 28.8459 29.7311 28.3651 29.2505L26.6092 27.4946L28.3651 25.7387C28.8459 25.2579 28.8459 24.4784 28.3651 23.9978C27.8843 23.517 27.1048 23.517 26.6242 23.9978L24.8683 25.7536L23.1124 23.9978C22.6316 23.517 21.8521 23.517 21.3715 23.9978C20.8907 24.4786 20.8907 25.2581 21.3715 25.7387L23.1273 27.4946L21.3715 29.2505C20.8907 29.7311 20.8907 30.5108 21.3715 30.9914Z"></path>
<path d="M34.5032 30.9914C34.7435 31.2317 35.0586 31.352 35.3736 31.352C35.6886 31.352 36.0038 31.2319 36.2441 30.9914L38 29.2355L39.7559 30.9914C39.9962 31.2317 40.3113 31.352 40.6263 31.352C40.9413 31.352 41.2565 31.2319 41.4968 30.9914C41.9776 30.5106 41.9776 29.7311 41.4968 29.2505L39.7409 27.4946L41.4968 25.7387C41.9776 25.2579 41.9776 24.4784 41.4968 23.9978C41.016 23.517 40.2365 23.517 39.7559 23.9978L38 25.7536L36.2441 23.9978C35.7633 23.517 34.9838 23.517 34.5032 23.9978C34.0224 24.4786 34.0224 25.2581 34.5032 25.7387L36.259 27.4946L34.5032 29.2505C34.0224 29.7311 34.0224 30.5108 34.5032 30.9914Z"></path>
<path d="M21.3715 44.1232C21.6118 44.3635 21.9269 44.4838 22.2419 44.4838C22.5569 44.4838 22.8721 44.3637 23.1124 44.1232L24.8683 42.3673L26.6242 44.1232C26.8645 44.3635 27.1796 44.4838 27.4946 44.4838C27.8096 44.4838 28.1248 44.3637 28.3651 44.1232C28.8459 43.6424 28.8459 42.8629 28.3651 42.3822L26.6092 40.6264L28.3651 38.8705C28.8459 38.3897 28.8459 37.6102 28.3651 37.1295C27.8843 36.6488 27.1048 36.6488 26.6242 37.1295L24.8683 38.8854L23.1124 37.1295C22.6316 36.6488 21.8521 36.6488 21.3715 37.1295C20.8907 37.6103 20.8907 38.3899 21.3715 38.8705L23.1273 40.6264L21.3715 42.3822C20.8907 42.8629 20.8907 43.6426 21.3715 44.1232Z"></path>
<path d="M54.6285 50.2613C54.1477 49.7805 53.3682 49.7805 52.8876 50.2613L51.1317 52.0172L49.3758 50.2613C48.895 49.7805 48.1155 49.7805 47.6349 50.2613C47.1541 50.7421 47.1541 51.5216 47.6349 52.0022L49.3908 53.7581L47.6349 55.514C47.1541 55.9948 47.1541 56.7743 47.6349 57.2549C47.8752 57.4952 48.1904 57.6156 48.5054 57.6156C48.8204 57.6156 49.1355 57.4954 49.3758 57.2549L51.1317 55.499L52.8876 57.2549C53.1279 57.4952 53.4431 57.6156 53.7581 57.6156C54.0731 57.6156 54.3882 57.4954 54.6285 57.2549C55.1093 56.7741 55.1093 55.9946 54.6285 55.514L52.8726 53.7581L54.6285 52.0022C55.1093 51.5216 55.1093 50.7419 54.6285 50.2613Z"></path>
<path d="M41.4968 50.2613C41.016 49.7805 40.2365 49.7805 39.7559 50.2613L38 52.0172L36.2441 50.2613C35.7633 49.7805 34.9838 49.7805 34.5032 50.2613C34.0224 50.7421 34.0224 51.5216 34.5032 52.0022L36.259 53.7581L34.5032 55.514C34.0224 55.9948 34.0224 56.7743 34.5032 57.2549C34.7435 57.4952 35.0586 57.6156 35.3736 57.6156C35.6886 57.6156 36.0038 57.4954 36.2441 57.2549L38 55.499L39.7559 57.2549C39.9962 57.4952 40.3113 57.6156 40.6263 57.6156C40.9413 57.6156 41.2565 57.4954 41.4968 57.2549C41.9776 56.7741 41.9776 55.9946 41.4968 55.514L39.7409 53.7581L41.4968 52.0022C41.9776 51.5216 41.9776 50.7419 41.4968 50.2613Z"></path>
<path d="M54.6285 37.1295C54.1477 36.6488 53.3682 36.6488 52.8876 37.1295L51.1317 38.8854L49.3758 37.1295C48.895 36.6488 48.1155 36.6488 47.6349 37.1295C47.1541 37.6103 47.1541 38.3899 47.6349 38.8705L49.3908 40.6264L47.6349 42.3822C47.1541 42.863 47.1541 43.6426 47.6349 44.1232C47.8752 44.3635 48.1904 44.4838 48.5054 44.4838C48.8204 44.4838 49.1355 44.3637 49.3758 44.1232L51.1317 42.3673L52.8876 44.1232C53.1279 44.3635 53.4431 44.4838 53.7581 44.4838C54.0731 44.4838 54.3882 44.3637 54.6285 44.1232C55.1093 43.6424 55.1093 42.8629 54.6285 42.3822L52.8726 40.6264L54.6285 38.8705C55.1093 38.3899 55.1093 37.6102 54.6285 37.1295Z"></path>
</svg>