<svg width="10" height="10" viewBox="0 0 10 10" fill="none" xmlns="http://www.w3.org/2000/svg">
<path d="M9.44991 0.550088C9.0833 0.183385 8.6416 0 8.12515 0H1.87501C1.35856 0 0.916859 0.183385 0.550088 0.550088C0.183385 0.916859 0 1.35854 0 1.87501V8.12508C0 8.64151 0.183385 9.08323 0.550088 9.45C0.916859 9.81677 1.35856 10.0002 1.87501 10.0002H8.12508C8.64153 10.0002 9.08323 9.81677 9.44984 9.45C9.81662 9.08323 10 8.64153 10 8.12508V1.87501C9.99998 1.35854 9.81659 0.91679 9.44991 0.550088ZM3.54167 8.33341H1.66661V6.45833L5.20836 2.9167L7.08328 4.79169L3.54167 8.33341ZM8.09901 3.77607L7.50015 4.37509L5.62507 2.49999L6.22393 1.90106C6.3455 1.77963 6.49301 1.71879 6.66671 1.71879C6.84026 1.71879 6.98791 1.77954 7.10932 1.90106L8.09899 2.89068C8.2204 3.01215 8.28128 3.15972 8.28128 3.33339C8.2813 3.50699 8.2206 3.65453 8.09901 3.77607Z" fill="white"/>
<path d="M2.29175 6.71883V7.08325H2.91675V7.70841H3.28128L3.61987 7.3698L2.63027 6.38013L2.29175 6.71883Z" fill="white"/>
<path d="M3.23576 5.75526C3.16195 5.82891 3.15547 5.89399 3.21617 5.9505C3.27259 6.01139 3.33771 6.00482 3.41151 5.931L5.30604 4.03642C5.37986 3.96277 5.38629 3.89764 5.32554 3.8412C5.26903 3.78039 5.20404 3.78686 5.13029 3.8607L3.23576 5.75526Z" fill="white"/>
</svg>
