<svg width="76" height="76" fill="#000" viewBox="0 0 76 76" xmlns="http://www.w3.org/2000/svg">
<path d="M62.7904 62.9375C61.9707 62.9375 61.306 63.6021 61.306 64.4219V66.5039L58.2475 73.9489C57.9359 74.7073 58.2983 75.5744 59.0565 75.886C59.241 75.9619 59.432 75.9976 59.6199 75.9976C60.204 75.9976 60.7579 75.6507 60.9936 75.077L64.1635 67.3609C64.2369 67.1819 64.2748 66.9903 64.2748 66.7969V64.4219C64.2748 63.6021 63.6101 62.9375 62.7904 62.9375Z"></path>
<path d="M63.84 57.5834C63.5639 57.3073 63.1809 57.1484 62.7905 57.1484C62.4001 57.1484 62.0172 57.3073 61.7411 57.5834C61.4651 57.8595 61.3062 58.2424 61.3062 58.6328C61.3062 59.0232 61.465 59.4062 61.7411 59.6823C62.0172 59.9584 62.4001 60.1172 62.7905 60.1172C63.1809 60.1172 63.5639 59.9584 63.84 59.6823C64.1159 59.4062 64.2749 59.0232 64.2749 58.6328C64.2749 58.2424 64.1161 57.8595 63.84 57.5834Z"></path>
<path d="M41.9726 15.8598C37.4582 11.3454 30.1127 11.3455 25.5984 15.8598C22.2785 19.1799 21.2908 24.1294 23.0826 28.4694C23.3189 29.0419 23.872 29.3878 24.4552 29.3878C24.6438 29.3878 24.8358 29.3516 25.021 29.2751C25.7788 28.9624 26.1395 28.0945 25.8267 27.3367C24.4942 24.1091 25.2288 20.4281 27.6978 17.9591C31.0546 14.6024 36.5165 14.6022 39.8732 17.9591C42.2491 20.335 43.0266 23.9058 41.8546 27.056C41.5687 27.8243 41.9598 28.679 42.7281 28.9647C43.496 29.2505 44.351 28.8597 44.6369 28.0912C46.213 23.8557 45.1671 19.0546 41.9726 15.8598Z"></path>
<path d="M46.6229 34.7207C46.0433 34.1409 45.1035 34.1409 44.5237 34.7207L44.4915 34.7529C43.9119 35.3326 43.9119 36.2725 44.4915 36.8523C44.7814 37.1422 45.1613 37.287 45.5411 37.287C45.921 37.287 46.3008 37.1422 46.5907 36.8523L46.6229 36.8201C47.2026 36.2404 47.2026 35.3005 46.6229 34.7207Z"></path>
<path d="M74.5156 0H1.48438C0.664703 0 0 0.664555 0 1.48438V48.9844C0 49.8042 0.664703 50.4688 1.48438 50.4688H14.3089C13.7916 51.3616 13.5146 52.378 13.5146 53.4375C13.5146 55.0236 14.1323 56.5145 15.2537 57.6361L33.182 75.5643C33.4719 75.8542 33.8518 75.9991 34.2316 75.9991C34.6115 75.9991 34.9913 75.8541 35.2812 75.5643C35.8609 74.9847 35.8609 74.0448 35.2812 73.4651L31.1618 69.3457C31.1711 69.2785 31.1777 69.2103 31.1777 69.1404V52.3242H32.8105C33.6301 52.3242 34.2949 51.6597 34.2949 50.8398C34.2949 50.02 33.6301 49.3555 32.8105 49.3555H31.1777V43.7055H32.8105C33.6301 43.7055 34.2949 43.0409 34.2949 42.2211C34.2949 41.4013 33.6301 40.7367 32.8105 40.7367H31.1777V33.3241H32.8105C33.6301 33.3241 34.2949 32.6595 34.2949 31.8397C34.2949 31.0199 33.6301 30.3553 32.8105 30.3553H31.1777V26.4959C31.1777 25.0227 32.3763 23.8241 33.8495 23.8241C35.3228 23.8241 36.5214 25.0227 36.5214 26.4959V50.6913C36.5214 50.7613 36.5279 50.8299 36.5373 50.8974C36.5679 51.6902 37.2185 52.3241 38.0187 52.3241C38.8384 52.3241 39.5031 51.6595 39.5031 50.8397V46.3496C39.5031 44.8917 40.6892 43.7055 42.1472 43.7055C43.6051 43.7055 44.7913 44.8917 44.7913 46.3496V50.8397C44.7913 51.6595 45.456 52.3241 46.2757 52.3241C47.0954 52.3241 47.7601 51.6595 47.7601 50.8397V47.7831C47.7601 46.3251 48.9462 45.139 50.4043 45.139C51.8623 45.139 53.0484 46.3251 53.0484 47.7831V50.8398C53.0484 51.6597 53.7131 52.3242 54.5328 52.3242C55.3525 52.3242 56.0172 51.6597 56.0172 50.8398V49.8472C56.0172 48.3893 57.2034 47.2031 58.6613 47.2031C60.1193 47.2031 61.3054 48.3893 61.3054 49.8472V53.4375C61.3054 54.2573 61.9701 54.9219 62.7898 54.9219C63.6095 54.9219 64.2742 54.2573 64.2742 53.4375V50.4688H74.5156C75.3353 50.4688 76 49.8042 76 48.9844V1.48438C76 0.664555 75.3353 0 74.5156 0ZM2.96875 19.2969H5.9375V22.2656H2.96875V19.2969ZM28.2089 66.3928L24.16 62.3438L25.1921 61.3118C25.7717 60.7322 25.7717 59.7923 25.1921 59.2126C24.6124 58.633 23.6728 58.633 23.0927 59.2126L22.0606 60.2445L17.3529 55.5369C16.7923 54.9762 16.4834 54.2306 16.4834 53.4376C16.4834 52.6447 16.7923 51.8991 17.3529 51.3384C18.5105 50.1809 20.3937 50.1809 21.5512 51.3384L28.2089 57.996V66.3928V66.3928ZM28.2089 53.7973L24.8804 50.4688H28.2089V53.7973ZM73.0312 47.5H63.7585C62.868 45.5743 60.919 44.2344 58.6619 44.2344C57.4553 44.2344 56.3371 44.6184 55.4209 45.269C54.497 43.4333 52.5962 42.1702 50.4048 42.1702C49.0865 42.1702 47.8738 42.6281 46.9149 43.3918C45.9233 41.7996 44.1575 40.7369 42.1475 40.7369C41.1867 40.7369 40.2818 40.9799 39.4903 41.4071V26.4961C39.4903 23.3859 36.9599 20.8555 33.8497 20.8555C30.7395 20.8555 28.2091 23.3859 28.2091 26.4961V47.5H2.96875V25.2344H7.42188C8.24155 25.2344 8.90625 24.5698 8.90625 23.75V17.8125C8.90625 16.9927 8.24155 16.3281 7.42188 16.3281H2.96875V2.96875H73.0312V47.5Z"></path>
<path d="M67.9844 8.01562H59.6719C58.8522 8.01562 58.1875 8.68018 58.1875 9.5V17.8125C58.1875 18.6323 58.8522 19.2969 59.6719 19.2969H67.9844C68.804 19.2969 69.4688 18.6323 69.4688 17.8125V9.5C69.4688 8.68018 68.804 8.01562 67.9844 8.01562ZM66.5 16.3281H61.1562V10.9844H66.5V16.3281Z"></path>
<path d="M67.9844 33.5469H62.0469C61.2272 33.5469 60.5625 34.2114 60.5625 35.0312V40.9687C60.5625 41.7886 61.2272 42.4531 62.0469 42.4531H67.9844C68.804 42.4531 69.4688 41.7886 69.4688 40.9687V35.0312C69.4688 34.2114 68.804 33.5469 67.9844 33.5469ZM66.5 39.4844H63.5312V36.5156H66.5V39.4844Z"></path>
<path d="M62.2494 22.5625H56.3119C55.4922 22.5625 54.8275 23.2271 54.8275 24.0469V29.9844C54.8275 30.8042 55.4922 31.4688 56.3119 31.4688H62.2494C63.0691 31.4688 63.7338 30.8042 63.7338 29.9844V24.0469C63.7338 23.2271 63.0691 22.5625 62.2494 22.5625ZM60.765 28.5H57.7963V25.5312H60.765V28.5Z"></path>
<path d="M12.4688 5.04688H6.53125C5.71158 5.04688 5.04688 5.71143 5.04688 6.53125V12.4688C5.04688 13.2886 5.71158 13.9531 6.53125 13.9531H12.4688C13.2884 13.9531 13.9531 13.2886 13.9531 12.4688V6.53125C13.9531 5.71143 13.2884 5.04688 12.4688 5.04688ZM10.9844 10.9844H8.01562V8.01562H10.9844V10.9844Z"></path>
<path d="M46.5905 11.2413C43.1701 7.82087 38.6224 5.93719 33.7853 5.93719C28.948 5.93719 24.4003 7.82087 20.9798 11.2413C17.5594 14.6618 15.6757 19.2094 15.6757 24.0466C15.6757 26.6801 16.2353 29.2275 17.2962 31.5542C17.0351 31.3248 16.6933 31.1842 16.3179 31.1842H8.00537C7.1857 31.1842 6.521 31.8487 6.521 32.6686V40.9811C6.521 41.8009 7.1857 42.4654 8.00537 42.4654H16.3179C17.1375 42.4654 17.8022 41.8009 17.8022 40.9811V32.6686C17.8022 32.6352 17.7994 32.6024 17.7972 32.5694C18.6296 34.1262 19.6968 35.5684 20.9803 36.852C21.2702 37.1419 21.65 37.2867 22.0299 37.2867C22.4097 37.2867 22.7896 37.1417 23.0795 36.852C23.6591 36.2723 23.6591 35.3324 23.0795 34.7528C20.2197 31.8931 18.6448 28.091 18.6448 24.0467C18.6448 20.0024 20.2197 16.2005 23.0795 13.3407C25.9391 10.4809 29.7412 8.90609 33.7856 8.90609C37.8297 8.90609 41.6318 10.481 44.4915 13.3407C49.1346 17.9838 50.2623 25.0356 47.2971 30.8882C46.9267 31.6194 47.2191 32.5127 47.9503 32.8831C48.6817 33.2534 49.5747 32.9611 49.9453 32.2298C53.492 25.229 52.1439 16.7945 46.5905 11.2413ZM14.8335 39.4967H9.48975V34.1529H14.8335V39.4967Z"></path>
<path d="M46.276 54.7734C40.4246 54.7734 35.6642 59.534 35.6642 65.3854C35.6642 71.2368 40.4246 75.9973 46.276 75.9973C52.1274 75.9973 56.8879 71.2368 56.8879 65.3854C56.8879 59.534 52.1274 54.7734 46.276 54.7734ZM46.276 73.0286C42.0615 73.0286 38.6329 69.5998 38.6329 65.3854C38.6329 61.1709 42.0617 57.7422 46.276 57.7422C50.4906 57.7422 53.9192 61.1709 53.9192 65.3854C53.9192 69.5998 50.4904 73.0286 46.276 73.0286Z"></path>
<path d="M49.8256 63.901C49.0059 63.901 48.3412 64.5655 48.3412 65.3854C48.3412 66.5242 47.4148 67.4507 46.276 67.4507C45.1372 67.4507 44.2108 66.5242 44.2108 65.3854C44.2108 64.2466 45.1372 63.3202 46.276 63.3202C47.0957 63.3202 47.7604 62.6556 47.7604 61.8358C47.7604 61.016 47.0957 60.3514 46.276 60.3514C43.5002 60.3514 41.2421 62.6096 41.2421 65.3854C41.2421 68.1612 43.5002 70.4195 46.276 70.4195C49.0518 70.4195 51.31 68.1613 51.31 65.3854C51.31 64.5655 50.6453 63.901 49.8256 63.901Z"></path>
</svg>