<svg width="76" height="76" viewBox="0 0 76 76" fill="#000" xmlns="http://www.w3.org/2000/svg">
<path d="M23.75 4.75H20.5834V7.91662H23.75V4.75Z"></path>
<path d="M30.0832 4.75H26.9166V7.91662H30.0832V4.75Z"></path>
<path d="M75.5364 30.5475C74.9182 29.9292 73.9156 29.929 73.2972 30.5473L61.75 42.0945V4.75C61.75 2.12666 59.6233 0 57 0H19C16.3767 0 14.25 2.12666 14.25 4.75V17.4166H4.75C2.12666 17.4166 0 19.5433 0 22.1666V31.6666C0 34.29 2.12666 36.4166 4.75 36.4166H14.25V47.5H4.75C2.12666 47.5 0 49.6267 0 52.25C0 54.8733 2.12666 57 4.75 57H14.25V61.75C14.25 64.3733 16.3767 66.5 19 66.5H37.3445L30.5473 73.2972C30.2505 73.5941 30.0838 73.9965 30.0837 74.4163C30.0835 75.2908 30.7922 75.9999 31.6666 76H74.4166C75.2911 76 76 75.2911 76 74.4166V31.6666C75.9999 31.247 75.8332 30.8444 75.5364 30.5475ZM19 3.16662H57C57.8744 3.16662 58.5834 3.87555 58.5834 4.75V9.5H17.4166V4.75C17.4166 3.87555 18.1256 3.16662 19 3.16662ZM3.16662 31.6666V22.1666C3.16662 21.2922 3.87555 20.5832 4.75 20.5832H26.9166C27.7911 20.5832 28.5 21.2922 28.5 22.1666V31.6666C28.5 32.5411 27.7911 33.25 26.9166 33.25H22.1666C21.2922 33.25 20.5832 33.9589 20.5832 34.8334V37.3445L16.9526 33.7139C16.6557 33.417 16.253 33.25 15.8332 33.25H4.75C3.87555 33.25 3.16662 32.5411 3.16662 31.6666ZM39.5834 50.6666V53.8332H11.0834V50.6666H39.5834V50.6666ZM3.16662 52.25C3.16662 51.3756 3.87555 50.6666 4.75 50.6666H7.91662V53.8332H4.75C3.87555 53.8334 3.16662 53.1244 3.16662 52.25ZM19 63.3334C18.1256 63.3334 17.4166 62.6244 17.4166 61.75V57H41.1666C41.4197 57 41.6581 56.9391 41.8702 56.8335L41.8744 56.8416L48.2078 53.675C48.5156 53.5215 48.7651 53.272 48.9186 52.9641C49.3087 52.1816 48.9905 51.2308 48.2078 50.8407L41.9823 47.728C41.7439 47.5842 41.4654 47.4999 41.1666 47.4999H17.4166V38.6554L21.0473 42.286C21.3441 42.5829 21.7468 42.7499 22.1666 42.7499C23.0411 42.7499 23.75 42.0409 23.75 41.1665V36.4165H26.9166C29.54 36.4165 31.6666 34.2898 31.6666 31.6665V22.1665C31.6666 19.5431 29.54 17.4165 26.9166 17.4165H17.4166V12.6665H58.5832V45.261L40.5111 63.3334H19ZM72.8334 72.8334H69.6668V71.25H66.5V72.8334H63.3334V71.25H60.1668V72.8334H57V71.25H53.8334V72.8334H50.6668V71.25H47.5V72.8334H44.3334V71.25H41.1668V72.8334H35.4889L72.8334 35.4889V72.8334V72.8334Z"></path>
<path d="M47.4999 69.6666H68.0833C68.9578 69.6666 69.6667 68.9577 69.6667 68.0832V47.5C69.6665 47.0802 69.4999 46.6778 69.2031 46.3809C68.5849 45.7625 67.5823 45.7624 66.9639 46.3806L46.3806 66.9639C46.0838 67.2608 45.9171 67.6632 45.917 68.0829C45.9167 68.9574 46.6255 69.6665 47.4999 69.6666ZM66.4999 51.3221V66.5H51.322L66.4999 51.3221Z"></path>
<path d="M9.49999 25.3334H6.33337V28.5H9.49999V25.3334Z"></path>
<path d="M25.3332 25.3334H12.6666V28.5H25.3332V25.3334Z"></path>
<path d="M53.8334 19H34.8334V22.1666H52.25V41.1666H30.0834V39.5832H26.9167V42.75C26.9167 43.6244 27.6257 44.3334 28.5001 44.3334H53.8335C54.708 44.3334 55.4169 43.6244 55.4169 42.75V20.5834C55.4166 19.7089 54.7078 19 53.8334 19Z"></path>
<path d="M49.0832 34.8334H45.9166V38H49.0832V34.8334Z"></path>
<path d="M42.75 34.8334H39.5834V38H42.75V34.8334Z"></path>
<path d="M49.0832 28.5H45.9166V31.6666H49.0832V28.5Z"></path>
</svg>