<?xml version="1.0" standalone="no"?>
<!DOCTYPE svg PUBLIC "-//W3C//DTD SVG 20010904//EN"
 "http://www.w3.org/TR/2001/REC-SVG-20010904/DTD/svg10.dtd">
<svg version="1.0" xmlns="http://www.w3.org/2000/svg"
 width="77.000000pt" height="77.000000pt" viewBox="0 0 77.000000 77.000000"
 preserveAspectRatio="xMidYMid meet">
<metadata>
Created by potrace 1.11, written by Peter Selinger 2001-2013
</metadata>
<g transform="translate(0.000000,77.000000) scale(0.100000,-0.100000)"
fill="#000000" stroke="none">
<path d="M512 695 c-10 -22 -10 -31 -1 -39 9 -8 10 -7 6 6 -3 9 -1 18 5 20 6
2 9 12 7 23 -3 16 -6 14 -17 -10z"/>
<path d="M472 661 c-8 -4 -13 -12 -13 -17 2 -18 -31 -45 -52 -44 -42 4 -48 0
-64 -37 -9 -21 -17 -40 -18 -43 -1 -3 -7 -18 -13 -33 -7 -16 -12 -33 -12 -38
0 -5 -4 -9 -8 -9 -5 0 -9 -6 -9 -12 0 -7 -12 -40 -26 -73 l-26 -60 -16 40
c-33 76 -38 90 -39 95 -1 3 -16 42 -34 86 -35 85 -45 94 -100 86 l-22 -3 2
-217 3 -217 25 1 c14 1 29 2 33 3 4 0 8 58 7 129 -1 159 -2 153 17 117 9 -16
16 -31 15 -32 -1 -2 9 -28 23 -58 13 -31 26 -64 27 -73 2 -9 6 -19 9 -22 3 -3
12 -18 20 -35 20 -42 67 -44 60 -3 -2 12 14 9 27 -4 8 -8 12 -8 12 -1 0 6 -6
16 -14 22 -11 9 -11 17 -2 36 6 14 15 25 19 25 4 0 2 -10 -4 -23 -15 -26 -15
-27 3 -38 10 -7 11 -12 0 -29 -13 -21 -3 -27 15 -9 9 9 9 18 0 36 -8 18 -8 29
1 44 10 16 10 21 -3 25 -12 5 -13 10 -1 32 7 15 11 32 9 38 -2 6 10 26 27 44
29 31 38 46 22 36 -5 -3 -9 2 -9 10 0 10 4 11 11 4 14 -14 29 -13 20 2 -5 7
-3 8 6 3 10 -6 12 -4 7 8 -3 10 -2 17 3 17 6 0 10 -8 10 -17 0 -9 3 -13 8 -9
12 12 8 30 -8 39 -10 5 -8 6 8 3 14 -3 22 1 22 10 0 8 -6 11 -15 8 -8 -4 -15
-1 -15 5 0 6 5 11 11 11 5 0 7 5 4 10 -3 6 -2 10 3 10 19 0 23 -51 8 -82 -9
-17 -13 -34 -10 -39 3 -5 0 -9 -5 -9 -6 0 -11 -9 -11 -21 0 -12 -4 -17 -11
-14 -6 4 -10 1 -8 -6 3 -25 -1 -39 -10 -39 -12 0 -2 39 16 65 18 27 18 50 -1
33 -8 -7 -13 -17 -13 -23 1 -5 -7 -8 -17 -7 -17 3 -18 2 -7 -12 8 -9 10 -23 6
-33 -5 -10 -7 -24 -6 -30 1 -7 -3 -13 -9 -13 -5 0 -10 -7 -10 -15 0 -8 -5 -15
-11 -15 -5 0 -8 -4 -4 -9 3 -5 1 -12 -3 -15 -10 -6 -9 -36 2 -54 4 -6 4 -18
-1 -25 -4 -6 -8 -16 -9 -22 -1 -5 -6 -19 -10 -29 -5 -13 -4 -17 4 -13 6 4 18
30 27 58 17 51 27 57 30 16 2 -21 5 -22 107 -21 89 0 112 4 149 23 79 41 119
107 119 193 0 101 -66 184 -165 210 -52 13 -68 25 -58 42 3 5 1 6 -5 2 -6 -3
-13 -2 -17 4 -4 6 -11 8 -16 5 -5 -3 -6 1 -3 9 7 18 5 19 -14 7z m40 -44 c-2
-4 -6 -16 -9 -27 -3 -11 -13 -20 -22 -20 -12 0 -13 2 -3 9 11 7 11 9 -2 14 -9
4 -15 3 -15 -1 3 -20 -2 -42 -10 -42 -9 0 0 48 14 70 6 10 52 8 47 -3z m-22
-66 c0 -6 -5 -13 -10 -16 -6 -4 -7 -12 -4 -18 5 -9 4 -9 -5 -1 -6 6 -9 18 -5
27 7 18 24 23 24 8z m106 -37 c47 -22 75 -66 79 -120 5 -97 -61 -160 -172
-163 -60 -2 -54 -14 -56 119 0 41 5 85 11 96 6 12 8 24 5 28 -3 3 -1 6 6 6 7
0 9 5 6 10 -3 6 -2 10 3 10 5 0 12 8 15 19 6 22 49 20 103 -5z m-218 -226 c-8
-13 -14 -31 -12 -41 1 -9 -2 -15 -6 -12 -5 3 -10 0 -13 -7 -2 -7 -3 0 -1 17 3
16 10 33 17 37 6 4 8 8 4 8 -4 0 -2 6 5 14 19 21 23 10 6 -16z"/>
<path d="M470 609 c0 -11 27 -12 34 -1 2 4 -4 9 -15 9 -10 1 -19 -2 -19 -8z"/>
<path d="M344 373 c-4 -10 -9 -25 -10 -33 -2 -8 -6 -26 -10 -40 -6 -24 -6 -24
9 -5 9 11 17 30 17 43 0 13 4 21 9 18 5 -4 8 1 7 9 -3 24 -13 27 -22 8z"/>
<path d="M267 158 c-9 -31 25 -53 36 -24 3 8 -1 17 -9 20 -9 3 -12 10 -9 16 3
5 2 10 -3 10 -5 0 -12 -10 -15 -22z"/>
<path d="M248 63 c6 -2 18 -2 25 0 6 3 1 5 -13 5 -14 0 -19 -2 -12 -5z"/>
</g>
</svg>
